<svg version="1.1" viewBox="0.0 0.0 960.0 960.0" fill="none" stroke="none" stroke-linecap="square" stroke-miterlimit="10" xmlns:xlink="http://www.w3.org/1999/xlink" xmlns="http://www.w3.org/2000/svg"><clipPath id="p.0"><path d="m0 0l960.0 0l0 960.0l-960.0 0l0 -960.0z" clip-rule="nonzero"/></clipPath><g clip-path="url(#p.0)"><path fill="#eef1f8" d="m0 0l960.0 0l0 960.0l-960.0 0z" fill-rule="evenodd"/><path fill="#3e2835" d="m35.498688 456.6824l0 0c0 -127.3038 82.964806 -230.50392 185.30708 -230.50392l0 0c49.1465 0 96.280075 24.285156 131.0319 67.51305c34.7518 43.227875 54.275177 101.85745 54.275177 162.99088l0 0c0 127.3038 -82.96481 230.50394 -185.30708 230.50394l0 0c-102.34228 0 -185.30708 -103.200134 -185.30708 -230.50394zm74.98637 0c0 85.889984 49.392265 155.51761 110.32072 155.51761c60.92845 0 110.320724 -69.627625 110.320724 -155.51761c0 -85.889984 -49.392273 -155.51755 -110.320724 -155.51755l0 0c-60.92845 0 -110.32072 69.62756 -110.32072 155.51755z" fill-rule="evenodd"/><path fill="#3e2835" d="m450.28632 437.2759l78.352234 0l0 -78.352264l38.81366 0l0 78.352264l78.352234 0l0 38.81363l-78.352234 0l0 78.352234l-38.81366 0l0 -78.352234l-78.352234 0z" fill-rule="evenodd"/><path fill="#3e2835" d="m690.22986 437.2759l78.352234 0l0 -78.352264l38.81366 0l0 78.352264l78.352234 0l0 38.81363l-78.352234 0l0 78.352234l-38.81366 0l0 -78.352234l-78.352234 0z" fill-rule="evenodd"/><path fill="#000000" fill-opacity="0.0" d="m505.60236 611.1601l346.77167 0l0 77.44885l-346.77167 0z" fill-rule="evenodd"/><path fill="#434343" d="m526.60236 659.0445q-2.234375 0 -4.078125 -0.9375q-1.84375 -0.953125 -3.1875 -2.703125q-1.328125 -1.765625 -2.078125 -4.296875q-0.734375 -2.546875 -0.734375 -5.78125q0 -3.171875 0.734375 -5.6875q0.75 -2.515625 2.078125 -4.234375q1.34375 -1.71875 3.1875 -2.640625q1.84375 -0.921875 4.078125 -0.921875q2.203125 0 4.0625 0.921875q1.859375 0.921875 3.1875 2.640625q1.34375 1.71875 2.078125 4.234375q0.75 2.515625 0.75 5.6875q0 3.234375 -0.75 5.78125q-0.734375 2.53125 -2.078125 4.296875q-1.328125 1.75 -3.1875 2.703125q-1.859375 0.9375 -4.0625 0.9375zm0 -2.921875q1.484375 0 2.71875 -0.734375q1.234375 -0.75 2.09375 -2.140625q0.875 -1.40625 1.34375 -3.40625q0.484375 -2.0 0.484375 -4.515625q0 -2.484375 -0.484375 -4.4375q-0.46875 -1.96875 -1.34375 -3.328125q-0.859375 -1.359375 -2.09375 -2.078125q-1.234375 -0.71875 -2.71875 -0.71875q-1.515625 0 -2.734375 0.71875q-1.21875 0.71875 -2.09375 2.078125q-0.859375 1.359375 -1.34375 3.328125q-0.46875 1.953125 -0.46875 4.4375q0 2.515625 0.46875 4.515625q0.484375 2.0 1.34375 3.40625q0.875 1.390625 2.09375 2.140625q1.21875 0.734375 2.734375 0.734375zm22.6875 -1.71875l0 -7.796875l-7.28125 0l0 -2.484375l7.28125 0l0 -7.796875l2.625 0l0 7.796875l7.28125 0l0 2.484375l-7.28125 0l0 7.796875l-2.625 0zm24.0 0l0 -7.796875l-7.28125 0l0 -2.484375l7.28125 0l0 -7.796875l2.625 0l0 7.796875l7.28125 0l0 2.484375l-7.28125 0l0 7.796875l-2.625 0zm42.671814 4.15625l0 -26.234375l3.28125 0l0 23.390625l13.0 0l0 2.84375l-16.28125 0zm28.484375 0.484375q-1.359375 0 -2.5625 -0.390625q-1.203125 -0.375 -2.109375 -1.078125q-0.890625 -0.703125 -1.421875 -1.71875q-0.515625 -1.015625 -0.515625 -2.34375q0 -1.640625 0.78125 -2.859375q0.78125 -1.21875 2.484375 -2.09375q1.703125 -0.875 4.375 -1.4375q2.6875 -0.5625 6.4375 -0.875q-0.03125 -1.0 -0.3125 -1.875q-0.28125 -0.890625 -0.890625 -1.546875q-0.59375 -0.671875 -1.578125 -1.0625q-0.96875 -0.40625 -2.375 -0.40625q-1.921875 0 -3.6875 0.75q-1.75 0.734375 -3.109375 1.578125l-1.28125 -2.25q0.71875 -0.46875 1.703125 -0.96875q0.984375 -0.5 2.078125 -0.90625q1.09375 -0.40625 2.328125 -0.65625q1.25 -0.265625 2.53125 -0.265625q4.0 0 5.9375 2.1875q1.9375 2.171875 1.9375 5.8125l0 11.921875l-2.671875 0l-0.28125 -2.640625l-0.125 0q-1.640625 1.28125 -3.625 2.203125q-1.96875 0.921875 -4.046875 0.921875zm0.875 -2.640625q1.6875 0 3.296875 -0.734375q1.625 -0.75 3.296875 -2.15625l0 -5.109375q-3.109375 0.234375 -5.21875 0.671875q-2.09375 0.4375 -3.359375 1.0625q-1.25 0.625 -1.78125 1.40625q-0.515625 0.78125 -0.515625 1.734375q0 0.84375 0.359375 1.421875q0.359375 0.578125 0.9375 0.96875q0.578125 0.375 1.359375 0.5625q0.78125 0.171875 1.625 0.171875zm17.0 2.15625l0 -19.4375l2.71875 0l0.28125 3.3125l0.15625 0q1.53125 -1.640625 3.28125 -2.71875q1.765625 -1.078125 4.046875 -1.078125q3.484375 0 5.09375 1.984375q1.625 1.984375 1.625 5.859375l0 12.078125l-3.28125 0l0 -11.640625q0 -2.765625 -1.046875 -4.09375q-1.03125 -1.34375 -3.4375 -1.34375q-0.875 0 -1.625 0.21875q-0.734375 0.21875 -1.453125 0.65625q-0.71875 0.4375 -1.484375 1.109375q-0.75 0.65625 -1.59375 1.53125l0 13.5625l-3.28125 0zm32.12494 8.953125q-4.28125 0 -6.625 -1.40625q-2.34375 -1.390625 -2.34375 -3.984375q0 -1.15625 0.8125 -2.28125q0.828125 -1.125 2.390625 -2.046875l0 -0.15625q-0.796875 -0.4375 -1.40625 -1.1875q-0.59375 -0.765625 -0.59375 -2.015625q0 -0.921875 0.59375 -1.890625q0.609375 -0.984375 1.734375 -1.75l0 -0.15625q-1.0 -0.765625 -1.703125 -2.015625q-0.703125 -1.265625 -0.703125 -3.015625q0 -1.609375 0.609375 -2.890625q0.625 -1.28125 1.65625 -2.171875q1.046875 -0.90625 2.421875 -1.40625q1.390625 -0.5 2.953125 -0.5q1.59375 0 2.875 0.484375l8.046875 0l0 2.671875l-5.046875 0q0.6875 0.6875 1.15625 1.734375q0.484375 1.03125 0.484375 2.1875q0 1.5625 -0.578125 2.8125q-0.578125 1.234375 -1.609375 2.09375q-1.015625 0.859375 -2.390625 1.328125q-1.375 0.453125 -2.9375 0.453125q-0.765625 0 -1.625 -0.171875q-0.859375 -0.1875 -1.65625 -0.546875q-1.515625 0.953125 -1.515625 2.234375q0 1.15625 1.046875 1.703125q1.0625 0.53125 2.984375 0.53125l4.359375 0q3.765625 0 5.578125 1.046875q1.828125 1.046875 1.828125 3.515625q0 1.359375 -0.765625 2.59375q-0.75 1.25 -2.15625 2.171875q-1.40625 0.921875 -3.40625 1.46875q-2.0 0.5625 -4.46875 0.5625zm-0.203125 -17.3125q1.875 0 3.171875 -1.234375q1.3125 -1.25 1.3125 -3.359375q0 -1.0 -0.359375 -1.84375q-0.359375 -0.84375 -0.96875 -1.4375q-0.59375 -0.609375 -1.421875 -0.9375q-0.8125 -0.34375 -1.734375 -0.34375q-0.921875 0 -1.75 0.34375q-0.8125 0.328125 -1.421875 0.9375q-0.59375 0.59375 -0.953125 1.4375q-0.359375 0.84375 -0.359375 1.84375q0 2.109375 1.3125 3.359375q1.328125 1.234375 3.171875 1.234375zm0.4375 14.921875q1.6875 0 3.046875 -0.328125q1.359375 -0.3125 2.3125 -0.859375q0.96875 -0.53125 1.46875 -1.234375q0.5 -0.703125 0.5 -1.453125q0 -1.40625 -1.109375 -1.890625q-1.09375 -0.484375 -3.34375 -0.484375l-3.796875 0q-0.84375 0 -1.578125 -0.0625q-0.734375 -0.046875 -1.375 -0.25q-1.40625 0.765625 -1.953125 1.578125q-0.53125 0.828125 -0.53125 1.65625q0 1.53125 1.609375 2.421875q1.625 0.90625 4.75 0.90625zm21.765625 -6.078125q-3.53125 0 -5.15625 -1.984375q-1.609375 -1.984375 -1.609375 -5.859375l0 -12.078125l3.328125 0l0 11.640625q0 2.75 1.015625 4.09375q1.015625 1.34375 3.453125 1.34375q1.6875 0 3.046875 -0.859375q1.359375 -0.859375 3.0 -2.734375l0 -13.484375l3.28125 0l0 19.4375l-2.6875 0l-0.28125 -3.40625l-0.15625 0q-1.484375 1.71875 -3.21875 2.8125q-1.734375 1.078125 -4.015625 1.078125zm24.0 0q-1.359375 0 -2.5625 -0.390625q-1.203125 -0.375 -2.109375 -1.078125q-0.890625 -0.703125 -1.421875 -1.71875q-0.515625 -1.015625 -0.515625 -2.34375q0 -1.640625 0.78125 -2.859375q0.78125 -1.21875 2.484375 -2.09375q1.703125 -0.875 4.375 -1.4375q2.6875 -0.5625 6.4375 -0.875q-0.03125 -1.0 -0.3125 -1.875q-0.28125 -0.890625 -0.890625 -1.546875q-0.59375 -0.671875 -1.578125 -1.0625q-0.96875 -0.40625 -2.375 -0.40625q-1.921875 0 -3.6875 0.75q-1.75 0.734375 -3.109375 1.578125l-1.28125 -2.25q0.71875 -0.46875 1.703125 -0.96875q0.984375 -0.5 2.078125 -0.90625q1.09375 -0.40625 2.328125 -0.65625q1.25 -0.265625 2.53125 -0.265625q4.0 0 5.9375 2.1875q1.9375 2.171875 1.9375 5.8125l0 11.921875l-2.671875 0l-0.28125 -2.640625l-0.125 0q-1.640625 1.28125 -3.625 2.203125q-1.96875 0.921875 -4.046875 0.921875zm0.875 -2.640625q1.6875 0 3.296875 -0.734375q1.625 -0.75 3.296875 -2.15625l0 -5.109375q-3.109375 0.234375 -5.21875 0.671875q-2.09375 0.4375 -3.359375 1.0625q-1.25 0.625 -1.78125 1.40625q-0.515625 0.78125 -0.515625 1.734375q0 0.84375 0.359375 1.421875q0.359375 0.578125 0.9375 0.96875q0.578125 0.375 1.359375 0.5625q0.78125 0.171875 1.625 0.171875zm25.125 11.109375q-4.28125 0 -6.625 -1.40625q-2.34375 -1.390625 -2.34375 -3.984375q0 -1.15625 0.8125 -2.28125q0.828125 -1.125 2.390625 -2.046875l0 -0.15625q-0.796875 -0.4375 -1.40625 -1.1875q-0.59375 -0.765625 -0.59375 -2.015625q0 -0.921875 0.59375 -1.890625q0.609375 -0.984375 1.734375 -1.75l0 -0.15625q-1.0 -0.765625 -1.703125 -2.015625q-0.703125 -1.265625 -0.703125 -3.015625q0 -1.609375 0.609375 -2.890625q0.625 -1.28125 1.65625 -2.171875q1.046875 -0.90625 2.421875 -1.40625q1.390625 -0.5 2.953125 -0.5q1.59375 0 2.875 0.484375l8.046875 0l0 2.671875l-5.046875 0q0.6875 0.6875 1.15625 1.734375q0.484375 1.03125 0.484375 2.1875q0 1.5625 -0.578125 2.8125q-0.578125 1.234375 -1.609375 2.09375q-1.015625 0.859375 -2.390625 1.328125q-1.375 0.453125 -2.9375 0.453125q-0.765625 0 -1.625 -0.171875q-0.859375 -0.1875 -1.65625 -0.546875q-1.515625 0.953125 -1.515625 2.234375q0 1.15625 1.046875 1.703125q1.0625 0.53125 2.984375 0.53125l4.359375 0q3.765625 0 5.578125 1.046875q1.828125 1.046875 1.828125 3.515625q0 1.359375 -0.765625 2.59375q-0.75 1.25 -2.15625 2.171875q-1.40625 0.921875 -3.40625 1.46875q-2.0 0.5625 -4.46875 0.5625zm-0.203125 -17.3125q1.875 0 3.171875 -1.234375q1.3125 -1.25 1.3125 -3.359375q0 -1.0 -0.359375 -1.84375q-0.359375 -0.84375 -0.96875 -1.4375q-0.59375 -0.609375 -1.421875 -0.9375q-0.8125 -0.34375 -1.734375 -0.34375q-0.921875 0 -1.75 0.34375q-0.8125 0.328125 -1.421875 0.9375q-0.59375 0.59375 -0.953125 1.4375q-0.359375 0.84375 -0.359375 1.84375q0 2.109375 1.3125 3.359375q1.328125 1.234375 3.171875 1.234375zm0.4375 14.921875q1.6875 0 3.046875 -0.328125q1.359375 -0.3125 2.3125 -0.859375q0.96875 -0.53125 1.46875 -1.234375q0.5 -0.703125 0.5 -1.453125q0 -1.40625 -1.109375 -1.890625q-1.09375 -0.484375 -3.34375 -0.484375l-3.796875 0q-0.84375 0 -1.578125 -0.0625q-0.734375 -0.046875 -1.375 -0.25q-1.40625 0.765625 -1.953125 1.578125q-0.53125 0.828125 -0.53125 1.65625q0 1.53125 1.609375 2.421875q1.625 0.90625 4.75 0.90625zm25.124939 -6.078125q-2.203125 0 -4.109375 -0.671875q-1.890625 -0.6875 -3.3125 -2.0q-1.421875 -1.328125 -2.25 -3.21875q-0.8125 -1.90625 -0.8125 -4.359375q0 -2.359375 0.8125 -4.234375q0.828125 -1.875 2.203125 -3.1875q1.390625 -1.328125 3.171875 -2.03125q1.78125 -0.703125 3.734375 -0.703125q2.078125 0 3.734375 0.671875q1.671875 0.65625 2.796875 1.859375q1.140625 1.1875 1.734375 2.875q0.609375 1.671875 0.609375 3.71875q0 0.5625 -0.046875 1.078125q-0.03125 0.515625 -0.109375 0.921875l-15.3125 0q0.3125 3.3125 2.40625 4.984375q2.109375 1.65625 5.140625 1.65625q1.765625 0 3.1875 -0.5q1.421875 -0.5 2.734375 -1.34375l1.203125 2.15625q-1.4375 0.96875 -3.296875 1.65625q-1.859375 0.671875 -4.21875 0.671875zm-0.484375 -17.796875q-1.203125 0 -2.3125 0.40625q-1.09375 0.390625 -1.96875 1.125q-0.875 0.734375 -1.484375 1.859375q-0.59375 1.125 -0.828125 2.5625l12.390625 0q-0.203125 -3.0 -1.75 -4.46875q-1.53125 -1.484375 -4.046875 -1.484375z" fill-rule="nonzero"/></g></svg>