<svg version="1.1" viewBox="0.0 0.0 960.0 960.0" fill="none" stroke="none" stroke-linecap="square" stroke-miterlimit="10" xmlns:xlink="http://www.w3.org/1999/xlink" xmlns="http://www.w3.org/2000/svg"><clipPath id="p.0"><path d="m0 0l960.0 0l0 960.0l-960.0 0l0 -960.0z" clip-rule="nonzero"/></clipPath><g clip-path="url(#p.0)"><path fill="#000000" fill-opacity="0.0" d="m0 0l960.0 0l0 960.0l-960.0 0z" fill-rule="evenodd"/><path fill="#00b6ff" d="m185.27559 480.0l0 0c0 -162.77179 131.95262 -294.72443 294.72443 -294.72443l0 0c78.16577 0 153.13007 31.051239 208.40161 86.32277c55.271545 55.271576 86.322815 130.23587 86.322815 208.40164l0 0c0 162.77179 -131.95264 294.72443 -294.72443 294.72443l0 0c-162.77179 0 -294.72443 -131.95264 -294.72443 -294.72443z" fill-rule="evenodd"/><path fill="#434343" d="m448.64066 585.27814l-123.515625 -80.00003l0 -32.640625l123.515625 -80.0l0 42.5625l-84.796875 53.125l0 1.28125l84.796875 53.109406l0 42.5625zm62.71872 0l0 -42.5625l84.796875 -53.109406l0 -1.28125l-84.796875 -53.125l0 -42.5625l123.515625 80.0l0 32.640625l-123.515625 80.00003z" fill-rule="nonzero"/></g></svg>